<?xml version="1.0" standalone="no"?>
<!DOCTYPE svg PUBLIC "-//W3C//DTD SVG 20010904//EN"
 "http://www.w3.org/TR/2001/REC-SVG-20010904/DTD/svg10.dtd">
<svg version="1.0" xmlns="http://www.w3.org/2000/svg"
 width="1081.000000pt" height="1081.000000pt" viewBox="0 0 1081.000000 1081.000000"
 preserveAspectRatio="xMidYMid meet">

<g transform="translate(0.000000,1081.000000) scale(0.100000,-0.100000)"
fill="#000000" stroke="none">
<path d="M5027 7968 c61 -96 127 -237 149 -318 19 -72 23 -215 7 -270 -10 -35
-10 -35 22 -37 59 -3 101 -27 109 -63 19 -96 -6 -253 -59 -367 -41 -89 -72
-135 -199 -293 -129 -161 -129 -161 -76 -117 56 48 167 102 240 116 52 11 57
15 91 69 141 221 170 412 97 651 -29 97 -116 271 -198 395 -67 103 -217 306
-226 306 -2 0 17 -33 43 -72z"/>
<path d="M6385 5992 c-1 -156 -62 -292 -184 -412 -77 -76 -139 -114 -229 -144
-258 -85 -526 -37 -699 124 -21 19 -78 55 -127 79 -69 34 -106 60 -160 115
-66 66 -126 159 -146 225 -19 60 -9 -16 11 -88 74 -271 263 -474 499 -537 36
-10 69 -21 74 -25 20 -17 -150 -43 -279 -42 -142 1 -282 29 -378 77 -44 21
-46 22 -30 3 38 -43 181 -140 267 -182 506 -245 1095 -75 1316 380 21 44 46
107 55 140 19 67 32 317 18 352 -5 15 -8 -7 -8 -65z"/>
</g>
</svg>
